<?xml version="1.0" encoding="UTF-8"?>
<svg id="Layer_1" data-name="Layer 1" xmlns="http://www.w3.org/2000/svg" viewBox="0 0 866.98 611.42">
  <defs>
    <style>
      .cls-1 {
        fill: #fff;
      }
    </style>
  </defs>
  <path class="cls-1" d="M187.48,418.04l-25.27,33.87,33.8,24.99c13.27-11.66,20.16-22.25,19.05-32.24-1.54-9.28-9.8-17.69-27.58-26.62"/>
  <path class="cls-1" d="M658.79,180.45c-1.24-9.32-9.24-17.98-26.73-27.47l-26.31,33.07,33.01,26.03c13.62-11.24,20.84-21.61,20.04-31.63"/>
  <path class="cls-1" d="M841.57,183.61c-5.44-3.35-11.31-6.96-19.05-6.95-36.53.04-66.85,78.6-66.85,78.6-14.28,38.31-46.83,28.13-46.83,28.13-20.74-4.64-23.37-30.08-23.16-44.36.04-2.54-3.26-3.53-4.64-1.4-7.91,12.27-15.82,37.38-41.38,50.96-8.72,4.63-22.09,7.43-27.83,1.88-6.89-6.67-8.55-18.27-8.67-27.82-.03-2.63-3.61-3.45-4.77-1.08-4.92,10.02-13.58,22.42-28.24,29.16-4.23,1.95-8.42,3.17-12.39,3.9-5.55,1.09-15.38,3.03-22.21-.22-7.69-3.66-12.21-14.19-12.41-26.95-.04-2.38-3.09-3.36-4.52-1.46-28.75,38.12-47.84,42.34-49.92,42.7-.14.02-.27.06-.41.11-31.27,11.37-34.11-29.06-34-45.61.01-2.28-2.77-3.41-4.34-1.75-11.25,11.92-27.13,25.97-48.39,37.84-45.73,25.53-123.64,45.04-180.4,6.39-17.71-12.06-28.86-26.72-35.44-37.09-12.51-21.84-11.63-50.38-5.58-77.64,24.2-16.88,56.91-37.73,56.91-37.73,120.13-72.3,133.19-121.65,133.19-121.65,17.83-52.17-82.61-23.91-82.61-23.91C115.84,46.19,86.36,130.32,86.36,130.32c-29.64,75.62,39.25,62.93,39.25,62.93-44.67,35.11-74.76,72.85-89.35,97.19-13.23,22.07-27.46,46.35-33.53,82.16-1.72,10.17-6.67,44.18,3.49,83.79,21.26,82.89,94.51,122.78,104.25,128.32,62.09,35.28,122.89,27.12,158.49,22.34,102.6-13.78,170.38-74.63,197.14-101.78-285.68,132.12-397.47-19.6-397.47-19.6-110.88-136.43,66.21-274.69,66.21-274.69.52-1.01,2.25-2.71,4.85-4.89-46.59,200.55,162.52,160.63,162.52,160.63,47.07-6.82,75-22.9,91.16-37.27,5.57-4.95,9.97-10.37,13.61-15.7.87-1.27,2.83-.39,2.47,1.11-.01.05-.03.11-.04.16-2.03,8.48-5.18,21.62,1.72,30.53,6.51,8.4,18.5,8.62,21.48,8.68,16.98.31,29.98-12.75,31.96-14.14,5.15-3.62,11.81-8.97,18.61-16.6,1.55-1.73,4.38-.64,4.4,1.68.08,8.24,3.11,15.81,8.86,20.65,9.08,7.63,21.13,5.24,26.74,4.13,10.81-2.14,17.87-8,27.01-15.57,6.39-5.3,11.34-10.53,14.99-14.86,1.16-1.38,3.36-1.12,4.16.5,2.98,6,10.01,17.04,23.07,20.91,10.59,3.14,19.88,0,24.99-1.73,11.56-3.91,18.96-11.18,27.25-19.33,4.48-4.4,8.03-8.56,10.71-11.98.99-1.26,2.87-1.3,3.9-.07,3.07,3.64,6.59,9.49,13.14,12.23,32.49,13.62,64.57,11.25,81.91,9.63,13.79-1.29,32.74-5.95,57.87-18.97,20.47-10.61,28.87-28.37,37.89-41.95,8.23-12.4,12-18.87,14.35-25.08,1.92-5.07,1.86-7.11,2.37-12.59,1.68-17.97-9-37.48-25.23-47.48M111.82,129.91c-2.51-8.17,9.51-18.53,19.7-27.13,9.79-8.27,53.8-43.64,141.58-53.12,7.87-.85,14.28-1.3,18.12-1.53,0,0,33.44.55-1.11,34.97,0,0-61.43,54.14-126.4,57.73-6.48.4-47.71,2.65-51.88-10.92M840.05,258.91c-5.72,5.46-14.37,8.28-21.34,11.06-2.57,1.03-5.12,1.93-7.63,2.73-19,6.07-35.98,6.06-47,5.12.05-.11.09-.23.14-.34,4.37-10.53,8.56-21.14,12.78-31.74.53-1.33,1.06-2.66,1.6-3.98,1.64-4.1,3.29-8.2,4.97-12.29,3.16-7.72,11.37-11.64,19.43-11.82.76-.02,1.52-.01,2.27.04,15.56,1.02,27.39,13.42,36.4,24.96,1.49,1.91,2.77,4.09,3.04,6.49.43,3.91-1.97,7.21-4.65,9.78"/>
</svg>